# xmcd
#
# Track frame offsets:
#	150
#	15467
#	31988
#	53921
#	67733
#	85894
#	100879
#	115594
#	130346
#	144328
#	160244
#	177551
#	193246
#	211076
#	227905
#	241776
#	261781
#	279202
#	294289
#	310307
#
# Disc length: 4363 seconds
#
# Revision: 2
# Processed by: cddbd v1.4b42PL1 Copyright (c) Steve Scherf et al.
# Submitted via: EZCDDA 4.3.2
#
DISCID=0f110914
DTITLE=Taj Mahal - cheatin' on you
DYEAR=1900
DGENRE=
TTITLE0=Taj Mahal - Cheatin' On You
TTITLE1=Taj Mahal - Don't Tell Me
TTITLE2=Taj Mahal - Fanning The Flames
TTITLE3=Taj Mahal - Fishing Blues
TTITLE4=Taj Mahal - Frankie and Johnny
TTITLE5=Taj Mahal - Freight Train
TTITLE6=Taj Mahal - Going Up To The Country And Paint My Mailbox Blue
TTITLE7=Taj Mahal - Jellyroll
TTITLE8=Taj Mahal - Let The Four Winds Blow
TTITLE9=Taj Mahal - Lonely Avenue
TTITLE10=Taj Mahal - Mail Box Blues
TTITLE11=Taj Mahal - Nobodys Buisness But Mine
TTITLE12=Taj Mahal - Ooh Poo Pah Doo
TTITLE13=Taj Mahal - She Caught The Katy
TTITLE14=Taj Mahal - Six Days On The Road
TTITLE15=Taj Mahal - Spike Driver Blues
TTITLE16=Taj Mahal - Stagger Lee
TTITLE17=Taj Mahal - Sweet Home Chicago
TTITLE18=Taj Mahal - Take A Giant Step
TTITLE19=Taj Mahal - The Banana Boat Song
EXTD=
EXTT0=
EXTT1=
EXTT2=
EXTT3=
EXTT4=
EXTT5=
EXTT6=
EXTT7=
EXTT8=
EXTT9=
EXTT10=
EXTT11=
EXTT12=
EXTT13=
EXTT14=
EXTT15=
EXTT16=
EXTT17=
EXTT18=
EXTT19=
PLAYORDER=
